<?xml version="1.0" encoding="utf-8"?>
<!-- Generator: Adobe Illustrator 26.3.1, SVG Export Plug-In . SVG Version: 6.00 Build 0)  -->
<svg version="1.1" id="a" xmlns="http://www.w3.org/2000/svg" xmlns:xlink="http://www.w3.org/1999/xlink" x="0px" y="0px"
	 viewBox="0 0 186 77.7" style="enable-background:new 0 0 186 77.7;" xml:space="preserve">
<style type="text/css">
	.st0{fill:#FFFFFF;}
	.st1{fill:none;}
</style>
<path class="st0" d="M34.5,45.4c0.9,0,1.8,0,2.8,0c-0.3,1.5-0.6,2.9-0.9,4.4c0,0.2-0.2,0.4-0.4,0.5c0.3,0.9,0.7,1.8,1.1,2.7
	c0.3-0.3,0.5-0.5,0.8-0.8c0.7-0.6,1.1-1.4,1.2-2.3c0.3-1.8,0.7-3.6,1-5.3c0.2-1.1-0.3-1.7-1.4-1.7c-1.2,0-2.3,0-3.5,0"/>
<g>
	<path class="st1" d="M7.8,30.2c0.8,1,2.2,1.6,3.3,2.3c0.6,0.4,1.2,0.8,1.8,1.2c0.3-1.4,0.1-2.5-1.1-3.3c-0.3-0.2-0.6-0.5-0.8-0.8
		c-0.3-0.5-0.6-1-0.6-1.5c-0.1-1.1,0-2.2,0-3.3c0-1,0.4-1.5,1.4-1.6c1.6-0.2,3.1-0.4,4.7-0.6c2.2-0.3,4.3-0.7,6.3-1.9
		c2.5-1.5,4.6-3.1,5.7-5.8c1-2.2,2.5-3.7,5-4.1c0.1,0,0.2,0,0.3-0.1c0.1-0.1,0.3-0.2,0.3-0.4c0.2-0.5,0.3-0.9,0.5-1.5
		c-0.7-0.1-1.3-0.2-2-0.3c-2.6-0.4-5.2-0.7-7.3-2.6c-0.4-0.4-0.8-0.3-1.3-0.1c-7.6,3.5-13.4,9-17.4,16.5c-0.7,1.4-1,2.6-0.3,4.1
		C6.9,27.6,7,29.2,7.8,30.2L7.8,30.2z"/>
	<path class="st1" d="M49.6,19.4c-1.2,0-2.6-0.3-3.6,0.1c-0.1,0-0.2,0.1-0.2,0.1h6.8c0,0-0.1-0.1-0.1-0.1
		C51.7,19.2,50.5,19.4,49.6,19.4L49.6,19.4z"/>
	<path class="st1" d="M30.9,41.9c-0.5-0.8-1-1.7-1.5-2.6c-0.2-0.4-0.5-0.5-0.9-0.5c-2.5,0-4.9,0-7.4,0c-0.9,0-1.4-0.3-1.7-1.1
		c-0.5-1-1-2.1-1.6-3.1c-0.1,0.1-0.2,0.1-0.3,0.2c-1.4,1.4-2.8,2.8-4.2,4.2c-0.2,0.2-0.3,0.5-0.3,0.8c-0.2,1.7,0.1,3.2,1,4.6
		c0.3,0.5,0.6,1.1,0.8,1.6c0.2,0.5,0.5,0.7,0.9,0.7c1.6,0.3,3.2,0.6,4.8,0.9c1.1,0.2,1.4,0.6,1.4,1.7c0,2.3,0.1,4.7,0,7
		c-0.2,3.6,0.4,6.9,1.9,10.1c0.5,0.9,1,1.2,2,1.3c0-1.3,0-2.6,0-3.8c0-1,0.3-1.7,1.1-2.2c0.8-0.5,1.6-1.3,2.4-1.8
		c1.4-0.8,2-1.8,1.7-3.4c0-0.2,0-0.5,0-0.7c-0.1-0.7,0.2-1.2,0.7-1.7c1.4-1.4,2.8-2.8,4.1-4.1c0,0,0,0,0,0c0.3,0.9,0.7,1.8,1.1,2.7
		c-0.4,0.4-0.8,0.9-1.3,1.2c-1.7,1.3-2.4,2.8-2.1,4.9c0.2,0.8-0.3,1.4-0.9,1.8c-1.3,0.9-2.5,1.8-3.8,2.8c-0.2,0.2-0.5,0.6-0.5,0.9
		c0,1.6,0,3.3,0,4.9c0,1.3-0.8,1.8-2,1.5c-1.1-0.3-2.2-0.8-3.3-1.1c-0.6-0.2-1-0.6-1.3-1.2c-0.7-1.9-1.5-3.8-2.3-5.7
		c-0.2-0.4-0.3-0.9-0.3-1.4c0-3.5,0-7.1,0-10.6v-0.8c-0.9-0.2-1.7-0.4-2.6-0.5s-1.6-0.3-2.4-0.5c-0.7-0.1-1.2-0.5-1.5-1.2
		c-0.5-1.1-1-2.2-1.6-3.2c-0.7-1.2-1-2.5-0.9-3.9c0.1-3.1-0.2-2.3,1.7-4.4c0,0,0-0.1,0.1-0.2c-1.9-1.3-3.9-2.6-5.8-3.9
		c-0.6-0.4-1-0.9-1.2-1.6c-0.2-0.8-0.5-1.6-0.8-2.5c-5.2,17.7,3.4,36,19.5,43.4c9,4.1,18.5,4.2,26.8,1.4c7-2.4,13.1-6.8,17.3-12.6
		c-0.8-0.8-1.6-1.6-2.4-2.3c-0.5-0.5-0.7-1-0.7-1.7c0-1.3,0-2.5,0-3.8c0-0.4-0.1-0.9-0.3-1.2c-0.7-1.5-1.5-3-2.2-4.5H30.9V41.9
		L30.9,41.9z"/>
	<path class="st1" d="M66.9,50.5c0.3,0.7,0.5,1.4,0.5,2.2c0.1,1.1,0,2.2,0,3.3c0,0.3,0.1,0.6,0.2,0.8c0.5,0.6,1.1,1.2,1.6,1.8
		c2.3-3.5,3.9-7.4,4.9-11.4h-9C65.8,48.2,66.3,49.3,66.9,50.5L66.9,50.5z"/>
	<path class="st1" d="M48.1,12.6c1-0.3,2.1-0.6,3.2-0.8c0.4-0.1,0.9-0.1,1.2,0.1c2.9,1.1,5.9,1.7,8.9,2.2c0.2,0,0.5,0.1,0.7,0
		c0.6-0.4,1.2-0.8,1.9-1.3c-2.5-2.4-5.1-4.3-8-5.8c-0.2-0.1-0.6-0.1-0.8,0c-1.1,0.5-2.2,1.1-3.3,1.6c-0.6,0.3-1.3,0.4-2,0.5
		c-0.6,0.1-1.2,0-1.8,0c-0.4,0-0.8,0-1.3,0c-0.2,0-0.5,0.1-0.6,0.3c-0.4,0.6-0.7,1.3-1,2c-0.1,0.2-0.2,0.5-0.4,0.8
		C46.3,12.9,46.6,12.9,48.1,12.6L48.1,12.6z"/>
	<path class="st0" d="M53,16.8c-2.4,0-4.9,0-7.3,0c-0.5,0-1,0.2-1.4,0.6c-0.8,0.7-1.5,1.5-2.3,2.2h3.8c0.1,0,0.2-0.1,0.2-0.1
		c1-0.4,2.4-0.1,3.6-0.1c1,0,2.1-0.2,2.8,0.1c0,0,0.1,0.1,0.1,0.1h3.2c-0.5-0.7-0.9-1.4-1.4-2C54,17.1,53.6,16.8,53,16.8L53,16.8z"
		/>
	<path class="st0" d="M69.3,58.4c-0.6-0.6-1.1-1.2-1.6-1.8c-0.2-0.2-0.2-0.5-0.2-0.8c0-1.1,0.1-2.2,0-3.3c-0.1-0.7-0.2-1.5-0.5-2.2
		c-0.6-1.2-1.1-2.3-1.7-3.5h-2.9c0.8,1.5,1.5,3,2.2,4.5c0.2,0.4,0.3,0.8,0.3,1.2c0,1.3,0,2.5,0,3.8c0,0.7,0.2,1.2,0.7,1.7
		c0.8,0.8,1.6,1.5,2.4,2.3c-4.2,5.8-10.3,10.2-17.3,12.6c0.7,0.7,1.4,1.4,2.1,2.1c5.9-2.2,11.1-5.8,15.6-10.8
		c4.4-5.1,7.3-10.9,8.7-17.3h-2.7C73.3,51,71.7,54.9,69.3,58.4L69.3,58.4z"/>
	<path class="st0" d="M49.8,9.1c0.7-0.1,1.4-0.2,2-0.5C53,8.1,54,7.5,55.2,7c0.2-0.1,0.6-0.1,0.8,0c2.9,1.5,5.6,3.5,8,5.8
		c-0.7,0.4-1.3,0.9-1.9,1.3c-0.2,0.1-0.4,0.1-0.7,0c-3-0.6-6-1.1-8.9-2.2c-0.4-0.1-0.8-0.1-1.2-0.1c-1.1,0.2-2.1,0.5-3.2,0.8
		c-1.5,0.4-1.8,0.4-3.4-0.4c0.1-0.2,0.2-0.5,0.4-0.8c-1.1,0.9-2.1,1.7-3,2.6c0.2,0.1,0.4,0.2,0.7,0.3c3.8,1.3,3.8,1.4,7.8,0.3
		c0.8-0.2,1.6-0.2,2.4,0.1c2.9,0.8,5.9,1.5,8.9,2.1c0.4,0.1,1-0.1,1.3-0.3c0.9-0.5,1.8-1.1,2.7-1.8c1.2,1.7,2.5,3.3,3.8,5h3
		c-1.4-2.5-3.2-4.9-5.3-7.2C64.4,9.2,61,6.6,57.3,4.6c-3.3,1-6.4,2.6-9.3,4.6C48.6,9.1,49.2,9.1,49.8,9.1L49.8,9.1z"/>
	<path class="st0" d="M23.8,71.8C7.6,64.3-1,46.1,4.2,28.4c0.3,0.9,0.6,1.7,0.8,2.5c0.2,0.7,0.6,1.2,1.2,1.6c2,1.3,3.9,2.6,5.9,3.9
		c0,0.1,0,0.2-0.1,0.2c-2,2-1.6,1.2-1.7,4.4c0,1.4,0.2,2.7,0.9,3.9c0.6,1,1.1,2.2,1.6,3.2c0.3,0.7,0.8,1.1,1.5,1.2
		c0.8,0.2,1.6,0.3,2.5,0.5c0.8,0.2,1.6,0.3,2.6,0.5v0.8c0,3.5,0,7.1,0,10.6c0,0.5,0.1,1,0.3,1.4c0.7,1.9,1.5,3.8,2.3,5.7
		c0.2,0.6,0.6,1,1.3,1.2c1.1,0.3,2.2,0.7,3.3,1.1c1.2,0.4,2-0.2,2-1.5c0-1.6,0-3.3,0-4.9c0-0.3,0.2-0.7,0.5-0.9
		c1.2-1,2.5-1.9,3.8-2.8c0.7-0.5,1.1-1,0.9-1.8c-0.4-2.1,0.4-3.7,2.1-4.9c0.5-0.3,0.9-0.8,1.3-1.2c-0.4-0.9-0.7-1.8-1.1-2.7
		c0,0,0,0,0,0c-1.4,1.4-2.7,2.8-4.1,4.1c-0.5,0.5-0.8,1-0.7,1.7c0,0.2,0,0.5,0,0.7c0.3,1.6-0.3,2.6-1.7,3.4
		c-0.9,0.5-1.6,1.2-2.4,1.8c-0.8,0.5-1.1,1.2-1.1,2.2c0.1,1.2,0,2.5,0,3.8c-0.9-0.2-1.5-0.4-2-1.3c-1.6-3.2-2.2-6.5-1.9-10.1
		c0.2-2.3,0-4.7,0-7c0-1.1-0.3-1.5-1.4-1.7c-1.6-0.3-3.2-0.6-4.8-0.9c-0.5-0.1-0.8-0.3-0.9-0.7c-0.2-0.6-0.5-1.1-0.8-1.6
		c-0.9-1.4-1.2-3-1-4.6c0-0.3,0.1-0.6,0.3-0.8c1.4-1.4,2.8-2.8,4.2-4.2c0.1-0.1,0.2-0.1,0.3-0.2c0.5,1.1,1.1,2.1,1.6,3.1
		c0.4,0.8,0.9,1.1,1.7,1.1c2.5,0,4.9,0,7.4,0c0.4,0,0.7,0.1,0.9,0.5c0.5,0.9,1,1.7,1.5,2.6v-5c-0.4-0.4-0.8-0.6-1.5-0.6
		c-2.4,0-4.8,0-7.2,0c-0.5,0-0.7-0.1-0.9-0.6c-0.6-1.2-1.2-2.4-1.8-3.6c-0.6-1.2-1.5-1.4-2.5-0.4c-0.4,0.4-0.8,0.8-1.1,1.2l-0.2-0.1
		c0-0.4,0-0.8,0-1.1c0.1-0.8-0.2-1.5-0.9-2.1c-0.3-0.2-0.5-0.5-0.8-0.7c-1-0.7-1.1-1.7-0.9-2.7c0-0.2,0.3-0.5,0.5-0.5
		c2.2-0.3,4.4-0.6,6.7-1c0.6-0.1,1.2-0.3,1.8-0.6c1.9-1.1,3.7-2.2,5.5-3.3c0.5-0.3,0.9-0.7,1.1-1.1c1-1.6,2-3.3,3-5
		c0.2-0.4,0.7-0.7,1.1-0.8c0.7-0.3,1.5-0.6,2.3-0.8c0.7-0.2,1.2-0.6,1.4-1.4c0.3-1.1,0.7-2.1,1-3.2c0.4-1.2,0-1.9-1.3-2.1
		c-2.2-0.4-4.3-0.7-6.5-1.1c-0.6-0.1-1.2-0.5-1.8-0.7C34.8,2,44.5,2,52.5,5.4c-1,0.4-1.8,1.1-2.8,1.1c-1.3,0-2.6,0-4,0
		c-0.8,0-1.4,0.3-1.7,1.1c-0.7,1.5-1.5,3-2.2,4.5c-0.5,1-0.4,1.6,0.3,2c0.9-0.9,1.9-1.8,3-2.6c0.3-0.7,0.7-1.3,1-2
		c0.1-0.2,0.4-0.3,0.6-0.3c0.4,0,0.8,0,1.3,0c2.8-2,6-3.5,9.3-4.6c-3.7-2-7.7-3.3-12-4.1c-1.2-0.2-2.5-0.3-3.7-0.5h-5.2
		c-1.4,0.2-2.8,0.4-4.2,0.6C21.5,2.6,13.1,8,6.9,16.9c-1.3,1.8-2.2,3.9-3.3,5.8c-0.2,0.3-0.5,0.6-0.7,1c0,0.1-0.1,0.1-0.1,0.2
		C2,27,1.2,30,0.5,33.2c-0.7,3.7-0.6,7.3-0.1,11c1,7,3.7,13.4,8.1,18.9c5.7,7.1,13.1,11.6,21.9,13.7c4.1,0.9,8.2,1.2,12.4,0.7
		c3.5-0.4,6.7-1.2,9.8-2.3c-0.7-0.7-1.4-1.4-2.1-2.1C42.3,76,32.8,75.9,23.8,71.8L23.8,71.8z M6.7,22.3c4-7.4,9.7-12.9,17.4-16.5
		c0.5-0.2,0.9-0.3,1.3,0.1c2,1.9,4.7,2.2,7.3,2.6c0.6,0.1,1.2,0.2,2,0.3c-0.2,0.6-0.3,1-0.5,1.5c-0.1,0.1-0.2,0.3-0.3,0.4
		c-0.1,0.1-0.2,0.1-0.3,0.1c-2.5,0.4-4,1.8-5,4.1c-1.1,2.7-3.2,4.4-5.7,5.8c-2,1.2-4.1,1.6-6.3,1.9c-1.6,0.2-3.1,0.4-4.6,0.6
		c-1,0.1-1.4,0.6-1.4,1.6c0,1.1-0.1,2.2,0,3.3c0,0.5,0.3,1,0.6,1.5c0.2,0.3,0.5,0.6,0.8,0.8c1.1,0.8,1.4,1.9,1.1,3.3
		c-0.6-0.4-1.2-0.8-1.8-1.2c-1.1-0.8-2.5-1.3-3.3-2.4c-0.8-1-0.8-2.6-1.4-3.8C5.7,24.9,6,23.7,6.7,22.3L6.7,22.3z"/>
</g>
<g>
	<path class="st0" d="M30.7,25.4h11v2.7h-8.3v5h8.3v2.7h-8.3v6.8h8.3v2.7h-11C30.7,45.3,30.7,25.4,30.7,25.4z"/>
	<path class="st0" d="M61,26.1v3.1c-2.2-1-4.1-1.6-5.9-1.6c-2.3,0-4.3,0.8-5.8,2.2c-1.6,1.5-2.4,3.3-2.4,5.5s0.8,4.1,2.4,5.5
		s3.7,2.2,6.1,2.2c1.8,0,3.7-0.6,5.6-1.7v3.1c-1.8,1-3.8,1.4-5.9,1.4c-3.1,0-5.7-1-7.9-3.1S44,38.3,44,35.3s1.1-5.4,3.2-7.4
		c2.2-2.1,4.7-3.1,7.8-3.1C56.9,24.8,59,25.2,61,26.1z"/>
	<path class="st0" d="M63.5,35.3c0-2.9,1.1-5.3,3.2-7.4s4.8-3.1,7.8-3.1s5.5,1,7.7,3.1c2.2,2.1,3.2,4.5,3.2,7.4c0,3-1.1,5.5-3.2,7.6
		S77.5,46,74.4,46s-5.6-1-7.8-3.1S63.4,38.2,63.5,35.3L63.5,35.3z M82.5,35.4c0-2.2-0.8-4-2.4-5.5c-1.6-1.5-3.5-2.3-5.8-2.3
		s-4.1,0.8-5.7,2.3c-1.6,1.5-2.3,3.4-2.3,5.5s0.8,4,2.4,5.5s3.6,2.3,5.9,2.3c2.2,0,4-0.8,5.6-2.3C81.7,39.3,82.5,37.5,82.5,35.4
		L82.5,35.4z"/>
	<path class="st0" d="M101.1,27.6l-2.2,1.8c-0.6-0.6-1.1-1-1.6-1.4c-0.5-0.3-1.2-0.5-2.1-0.5c-1,0-1.8,0.2-2.4,0.7S92,29.3,92,30
		c0,0.6,0.3,1.1,0.8,1.6c0.5,0.5,1.4,1,2.7,1.5c1.3,0.5,2.3,1.1,3,1.5c0.7,0.5,1.3,1,1.8,1.6c0.5,0.6,0.8,1.2,1,1.8
		c0.2,0.6,0.3,1.3,0.3,2c0,1.7-0.6,3.1-1.8,4.2S97.1,46,95.4,46s-3.1-0.5-4.4-1.4c-1.3-0.9-2.3-2.3-2.9-4.1l2.7-0.8
		c1,2.2,2.5,3.4,4.6,3.4c1,0,1.8-0.3,2.5-0.9s1-1.3,1-2.2c0-0.5-0.2-1.1-0.5-1.6c-0.3-0.5-0.8-1-1.3-1.3s-1.3-0.8-2.4-1.2
		c-1.1-0.5-2-0.9-2.6-1.3c-0.6-0.4-1.1-0.8-1.6-1.4c-0.4-0.5-0.8-1-1-1.6s-0.3-1.1-0.3-1.7c0-1.4,0.6-2.6,1.7-3.6
		c1.2-1,2.5-1.5,4.2-1.5c1.1,0,2.2,0.2,3.3,0.7C99.5,25.9,100.4,26.7,101.1,27.6L101.1,27.6z"/>
	<path class="st0" d="M105.6,25.4h4c2.3,0,4.1,0.5,5.5,1.6c1.4,1.1,2.1,2.4,2.1,4.1c0,1.7-0.7,3.1-2.2,4.3c-1.5,1.2-3.7,1.7-6.7,1.7
		v8.2h-2.7V25.4z M108.3,27.8v7c2,0,3.6-0.3,4.5-0.9c1-0.6,1.5-1.5,1.5-2.7c0-0.9-0.4-1.7-1.1-2.4S110.8,27.8,108.3,27.8L108.3,27.8
		z"/>
	<path class="st0" d="M121.1,25.4h2.7v7.7h9.5v-7.7h2.7v19.9h-2.7v-9.6h-9.5v9.6h-2.7V25.4z"/>
	<path class="st0" d="M139.9,25h3.5v3.6c0,0.7-0.2,1.5-0.6,2.2s-0.9,1.5-1.5,2l-1.2-1.2c1-1,1.5-2.1,1.6-3.2h-1.8L139.9,25L139.9,25
		z"/>
	<path class="st0" d="M154.7,24.7l9.4,20.7h-2.9l-2.3-5.1h-8.4l-2.3,5.1h-2.8L154.7,24.7L154.7,24.7z M154.7,30.9l-3.2,7.1h6.4
		C157.9,38,154.7,30.9,154.7,30.9z"/>
	<path class="st0" d="M166.6,25.4h2.7v19.9h-2.7V25.4z"/>
	<path class="st0" d="M174.1,25.4h4.3c2.1,0,3.9,0.5,5.2,1.6s2,2.4,2,4.1c0,1.3-0.4,2.5-1.3,3.5s-2.2,1.7-4.1,2.2l5.8,8.5h-3.1
		l-5.5-8.2h-0.6v8.2h-2.7L174.1,25.4L174.1,25.4z M176.8,27.8v6.9c4,0.1,6-1.1,6-3.5c0-0.8-0.2-1.5-0.7-2.1
		c-0.5-0.5-1.1-0.9-1.9-1.1C179.4,27.9,178.3,27.8,176.8,27.8L176.8,27.8z"/>
</g>
</svg>
