<?xml version="1.0" encoding="UTF-8"?><svg id="a" xmlns="http://www.w3.org/2000/svg" viewBox="0 0 186.03 77.74"><defs><style>.b{fill:none;}.c{fill:#025959;}</style></defs><path class="c" d="M34.48,45.37c.91-.02,1.82,0,2.82,0-.3,1.51-.56,2.94-.87,4.36-.04,.2-.25,.38-.42,.54,.33,.89,.68,1.78,1.06,2.67,.26-.28,.52-.55,.8-.8,.72-.64,1.09-1.38,1.24-2.33,.29-1.79,.71-3.56,1.04-5.34,.2-1.07-.34-1.72-1.43-1.74-1.16-.03-2.33-.05-3.49,0"/><g><path class="b" d="M7.77,30.18c.79,1.03,2.18,1.58,3.31,2.35,.6,.4,1.19,.8,1.8,1.2,.33-1.39,.08-2.48-1.06-3.28-.31-.21-.61-.49-.79-.81-.27-.46-.57-.97-.61-1.48-.09-1.08-.04-2.17-.03-3.26,.01-1.01,.42-1.49,1.41-1.64,1.55-.23,3.1-.44,4.65-.64,2.2-.29,4.27-.73,6.28-1.91,2.5-1.47,4.58-3.15,5.72-5.84,.96-2.25,2.53-3.69,4.99-4.07,.1-.02,.21-.04,.28-.09,.13-.1,.28-.22,.33-.36,.18-.47,.33-.95,.51-1.5-.73-.13-1.35-.25-1.97-.34-2.6-.36-5.22-.66-7.27-2.58-.41-.38-.8-.34-1.3-.11-7.64,3.55-13.41,9.05-17.37,16.49-.74,1.39-1.03,2.61-.33,4.09,.58,1.22,.64,2.76,1.43,3.79Z"/><path class="b" d="M49.58,19.43c-1.21,0-2.57-.31-3.6,.13-.08,.03-.15,.08-.22,.12h6.79s-.09-.07-.14-.09c-.76-.4-1.87-.15-2.82-.15Z"/><path class="b" d="M30.94,41.92c-.51-.85-1.03-1.71-1.53-2.57-.22-.37-.46-.52-.89-.51-2.45,.02-4.9-.01-7.36,.02-.85,.01-1.37-.3-1.73-1.06-.48-1.04-1.03-2.06-1.56-3.13-.14,.09-.23,.13-.29,.2-1.42,1.41-2.84,2.81-4.23,4.24-.18,.19-.26,.53-.29,.81-.18,1.65,.1,3.2,1.03,4.62,.33,.5,.59,1.06,.81,1.62,.18,.46,.49,.65,.95,.74,1.61,.3,3.22,.62,4.82,.94,1.08,.21,1.4,.61,1.41,1.71,0,2.35,.13,4.71-.03,7.05-.24,3.56,.35,6.89,1.92,10.1,.45,.91,1.03,1.17,1.97,1.33,0-1.32,.04-2.58-.01-3.83-.04-.98,.27-1.69,1.1-2.23,.84-.55,1.57-1.29,2.44-1.79,1.37-.78,1.97-1.84,1.67-3.39-.04-.22,.01-.46,0-.68-.06-.68,.21-1.2,.69-1.68,1.39-1.36,2.76-2.75,4.13-4.13,.01-.01,.03-.03,.04-.04,.33,.89,.68,1.78,1.06,2.67-.4,.43-.8,.86-1.26,1.21-1.66,1.27-2.44,2.84-2.06,4.94,.15,.81-.28,1.38-.92,1.85-1.27,.92-2.53,1.85-3.75,2.83-.25,.2-.45,.6-.46,.91-.05,1.64-.01,3.29-.02,4.93-.01,1.29-.77,1.85-1.99,1.46-1.1-.35-2.2-.75-3.3-1.09-.63-.2-1.02-.58-1.26-1.2-.74-1.9-1.52-3.79-2.26-5.7-.17-.44-.27-.93-.27-1.39-.02-3.54-.01-7.08-.01-10.62v-.78c-.93-.19-1.74-.36-2.56-.52-.82-.16-1.63-.33-2.45-.47-.73-.13-1.23-.51-1.54-1.19-.51-1.1-1.03-2.2-1.63-3.25-.71-1.22-.97-2.49-.93-3.9,.08-3.12-.24-2.33,1.73-4.38,.03-.03,.03-.08,.07-.18-1.94-1.3-3.88-2.62-5.85-3.89-.64-.41-1.03-.92-1.24-1.63-.23-.79-.52-1.57-.83-2.5-5.24,17.73,3.38,35.96,19.54,43.38,9,4.13,18.52,4.19,26.81,1.36,6.96-2.38,13.06-6.8,17.26-12.59-.78-.77-1.56-1.56-2.38-2.31-.51-.47-.71-1.01-.7-1.68,.01-1.26,.03-2.53,0-3.79-.01-.41-.11-.86-.29-1.22-.74-1.5-1.47-3-2.22-4.49H30.94v-5.1Z"/><path class="b" d="M66.89,50.48c.31,.66,.46,1.43,.52,2.16,.09,1.08,0,2.17,.03,3.26,0,.26,.07,.57,.22,.75,.5,.6,1.06,1.15,1.64,1.77,2.34-3.52,3.95-7.4,4.87-11.4h-8.98c.57,1.15,1.15,2.3,1.7,3.45Z"/><path class="b" d="M48.11,12.55c1.05-.27,2.09-.57,3.15-.78,.4-.08,.88-.09,1.25,.05,2.9,1.08,5.92,1.66,8.93,2.23,.21,.04,.49,.07,.65-.02,.64-.38,1.24-.82,1.89-1.26-2.46-2.35-5.09-4.29-8.02-5.82-.22-.11-.59-.08-.82,.02-1.12,.52-2.2,1.14-3.33,1.63-.63,.27-1.34,.43-2.02,.48-.61,.05-1.23,.04-1.85,.03-.42,0-.84-.01-1.26,0-.22,0-.53,.11-.62,.27-.36,.65-.69,1.32-1.01,1.98-.12,.25-.25,.51-.38,.76,1.6,.77,1.92,.81,3.42,.42Z"/><path class="c" d="M52.96,16.83c-2.43,.02-4.86-.02-7.28,.03-.48,.01-1.05,.24-1.4,.57-.79,.72-1.54,1.48-2.3,2.24h3.79c.07-.04,.15-.08,.22-.12,1.03-.44,2.38-.13,3.6-.13,.96,0,2.07-.25,2.82,.15,.05,.03,.09,.06,.14,.09h3.2c-.45-.69-.92-1.36-1.36-2.05-.34-.54-.78-.8-1.44-.79Z"/><path class="c" d="M69.31,58.42c-.58-.62-1.14-1.17-1.64-1.77-.16-.19-.22-.5-.22-.75-.02-1.09,.05-2.18-.03-3.26-.06-.73-.2-1.51-.52-2.16-.56-1.16-1.13-2.3-1.7-3.45h-2.93c.75,1.49,1.49,2.99,2.22,4.49,.18,.37,.28,.81,.29,1.22,.04,1.26,.02,2.53,0,3.79,0,.67,.19,1.22,.7,1.68,.82,.75,1.59,1.55,2.38,2.31-4.19,5.79-10.29,10.21-17.26,12.59,.68,.71,1.37,1.41,2.07,2.08,5.92-2.21,11.12-5.81,15.55-10.85,4.44-5.06,7.3-10.86,8.69-17.33h-2.74c-.92,4-2.52,7.88-4.87,11.4Z"/><path class="c" d="M49.81,9.08c.68-.05,1.39-.21,2.02-.48,1.13-.48,2.21-1.1,3.33-1.63,.23-.11,.6-.14,.82-.02,2.93,1.52,5.56,3.47,8.02,5.82-.65,.44-1.26,.88-1.89,1.26-.16,.1-.44,.06-.65,.02-3.02-.58-6.04-1.15-8.93-2.23-.38-.14-.85-.14-1.25-.05-1.06,.22-2.1,.52-3.15,.78-1.5,.39-1.83,.35-3.42-.42,.13-.25,.25-.51,.38-.76-1.07,.86-2.06,1.74-2.97,2.65,.18,.12,.39,.22,.66,.31,3.85,1.34,3.85,1.35,7.78,.31,.84-.22,1.58-.17,2.42,.05,2.94,.78,5.91,1.46,8.89,2.11,.41,.09,.95-.11,1.34-.34,.91-.53,1.77-1.15,2.75-1.81,1.25,1.67,2.48,3.32,3.77,5.03h3.02c-1.45-2.54-3.2-4.94-5.27-7.17-3.05-3.3-6.47-5.94-10.22-7.94-3.33,1.03-6.44,2.56-9.28,4.55,.62,0,1.24,.01,1.85-.03Z"/><path class="c" d="M23.79,71.77C7.63,64.35-.98,46.12,4.25,28.39c.31,.93,.6,1.71,.83,2.5,.21,.72,.61,1.22,1.24,1.63,1.97,1.27,3.91,2.59,5.85,3.89-.03,.09-.04,.15-.07,.18-1.97,2.04-1.65,1.25-1.73,4.38-.04,1.41,.22,2.68,.93,3.9,.6,1.05,1.12,2.15,1.63,3.25,.32,.68,.82,1.06,1.54,1.19,.82,.15,1.63,.31,2.45,.47,.82,.16,1.63,.33,2.56,.52v.78c0,3.54,0,7.08,.01,10.62,0,.47,.1,.96,.27,1.39,.73,1.91,1.52,3.79,2.26,5.7,.24,.61,.63,1,1.26,1.2,1.11,.35,2.2,.74,3.3,1.09,1.22,.39,1.98-.17,1.99-1.46,.01-1.64-.02-3.29,.02-4.93,0-.31,.21-.72,.46-.91,1.23-.98,2.48-1.91,3.75-2.83,.65-.47,1.07-1.04,.92-1.85-.38-2.11,.4-3.67,2.06-4.94,.46-.35,.86-.79,1.26-1.21-.38-.88-.73-1.78-1.06-2.67-.01,.01-.03,.03-.04,.04-1.37,1.38-2.74,2.77-4.13,4.13-.48,.47-.75,.99-.69,1.68,.02,.23-.03,.46,0,.68,.3,1.56-.29,2.62-1.67,3.39-.87,.49-1.6,1.23-2.44,1.79-.83,.55-1.15,1.25-1.1,2.23,.06,1.25,.01,2.51,.01,3.83-.94-.16-1.53-.42-1.97-1.33-1.58-3.21-2.16-6.54-1.92-10.1,.16-2.34,.03-4.7,.03-7.05,0-1.1-.33-1.49-1.41-1.71-1.61-.32-3.21-.64-4.82-.94-.46-.09-.76-.28-.95-.74-.23-.56-.49-1.12-.81-1.62-.93-1.42-1.21-2.97-1.03-4.62,.03-.28,.11-.62,.29-.81,1.39-1.43,2.81-2.83,4.23-4.24,.07-.07,.16-.11,.29-.2,.54,1.07,1.08,2.09,1.56,3.13,.35,.76,.88,1.08,1.73,1.06,2.45-.04,4.9,0,7.36-.02,.44,0,.67,.14,.89,.51,.5,.86,1.02,1.71,1.53,2.57v-5.04c-.37-.43-.82-.64-1.49-.63-2.4,.04-4.81,0-7.21,.02-.47,0-.73-.13-.93-.56-.57-1.21-1.17-2.4-1.78-3.59-.62-1.22-1.54-1.36-2.53-.39-.4,.39-.76,.82-1.13,1.23l-.23-.06c0-.38-.02-.76,0-1.14,.06-.84-.22-1.53-.87-2.07-.27-.22-.47-.55-.76-.74-1.02-.68-1.08-1.68-.95-2.74,.03-.2,.28-.49,.47-.52,2.22-.34,4.45-.62,6.67-.97,.61-.1,1.23-.29,1.77-.6,1.86-1.06,3.7-2.17,5.52-3.31,.45-.28,.86-.7,1.15-1.15,1.04-1.64,1.99-3.34,3.03-4.98,.23-.36,.66-.66,1.06-.84,.74-.32,1.52-.55,2.29-.78,.72-.21,1.16-.63,1.38-1.36,.32-1.06,.7-2.1,1.04-3.16,.39-1.22-.02-1.91-1.26-2.13-2.16-.37-4.33-.69-6.49-1.1-.61-.12-1.18-.46-1.77-.7,6.89-2.65,16.56-2.68,24.62,.74-1.05,.38-1.78,1.12-2.84,1.12-1.32,0-2.63,.02-3.95,0-.82-.02-1.37,.29-1.73,1.06-.71,1.51-1.49,2.98-2.22,4.47-.48,.97-.39,1.58,.28,2.02,.91-.91,1.9-1.79,2.97-2.65,.33-.67,.66-1.33,1.01-1.98,.09-.16,.41-.26,.62-.27,.42-.01,.84,0,1.26,0,2.84-1.99,5.95-3.52,9.28-4.55-3.68-1.96-7.68-3.31-12.01-4.06-1.24-.21-2.49-.33-3.73-.5h-5.16c-1.39,.2-2.8,.36-4.18,.62C21.51,2.61,13.06,8.04,6.9,16.94c-1.26,1.82-2.21,3.85-3.31,5.77-.19,.34-.45,.64-.67,.96-.04,.06-.11,.11-.12,.17-.77,3.11-1.65,6.21-2.27,9.35-.72,3.65-.63,7.35-.1,11.02,1.01,7.02,3.68,13.35,8.13,18.89,5.71,7.12,13.05,11.64,21.93,13.69,4.1,.94,8.25,1.2,12.42,.73,3.45-.39,6.71-1.16,9.78-2.31-.7-.67-1.39-1.37-2.07-2.08-8.29,2.84-17.81,2.77-26.81-1.36ZM6.68,22.3c3.96-7.44,9.73-12.94,17.37-16.49,.49-.23,.89-.28,1.3,.11,2.05,1.92,4.67,2.22,7.27,2.58,.62,.09,1.24,.21,1.97,.34-.19,.56-.33,1.04-.51,1.5-.06,.14-.2,.26-.33,.36-.07,.06-.19,.08-.28,.09-2.46,.38-4.04,1.83-4.99,4.07-1.14,2.69-3.22,4.38-5.72,5.84-2.01,1.18-4.08,1.62-6.28,1.91-1.55,.2-3.1,.41-4.65,.64-.99,.15-1.4,.63-1.41,1.64-.01,1.09-.07,2.18,.03,3.26,.04,.51,.34,1.02,.61,1.48,.19,.32,.49,.59,.79,.81,1.14,.8,1.39,1.89,1.06,3.28-.61-.41-1.21-.8-1.8-1.2-1.13-.76-2.53-1.32-3.31-2.35-.78-1.02-.85-2.56-1.43-3.79-.7-1.48-.4-2.71,.33-4.09Z"/></g><g><path class="c" d="M30.72,25.43h11.03v2.72h-8.34v4.97h8.34v2.69h-8.34v6.84h8.34v2.69h-11.03V25.43Z"/><path class="c" d="M61.05,26.11v3.08c-2.15-1.05-4.12-1.58-5.92-1.58-2.31,0-4.26,.75-5.84,2.24-1.58,1.49-2.38,3.33-2.38,5.5s.81,4.07,2.43,5.55c1.62,1.48,3.65,2.22,6.09,2.22,1.77,0,3.65-.56,5.62-1.67v3.11c-1.8,.96-3.76,1.44-5.86,1.44-3.08,0-5.72-1.04-7.91-3.13s-3.28-4.6-3.28-7.55,1.08-5.37,3.23-7.43c2.15-2.06,4.74-3.09,7.77-3.09,1.95,0,3.96,.44,6.05,1.31Z"/><path class="c" d="M63.45,35.26c0-2.87,1.08-5.33,3.25-7.38,2.17-2.05,4.77-3.08,7.81-3.08s5.53,1.03,7.67,3.1c2.15,2.07,3.22,4.52,3.22,7.36,0,3.01-1.06,5.55-3.18,7.63-2.12,2.08-4.72,3.12-7.8,3.12s-5.63-1.05-7.77-3.14c-2.14-2.09-3.2-4.63-3.2-7.6Zm19.06,.12c0-2.2-.79-4.05-2.38-5.55-1.58-1.5-3.53-2.26-5.84-2.26s-4.08,.76-5.65,2.29c-1.57,1.53-2.35,3.37-2.35,5.51s.8,4.01,2.41,5.52,3.58,2.26,5.91,2.26c2.15,0,4-.77,5.55-2.3,1.56-1.53,2.34-3.36,2.34-5.47Z"/><path class="c" d="M101.11,27.65l-2.2,1.77c-.58-.6-1.11-1.05-1.58-1.35-.47-.3-1.16-.45-2.05-.45-.98,0-1.77,.22-2.38,.66-.61,.44-.91,1.01-.91,1.71,0,.6,.27,1.13,.8,1.6,.53,.46,1.44,.97,2.71,1.52,1.28,.55,2.27,1.06,2.99,1.53,.71,.47,1.3,1,1.75,1.57,.46,.57,.8,1.18,1.02,1.81,.22,.64,.34,1.31,.34,2.01,0,1.65-.6,3.07-1.8,4.23s-2.66,1.75-4.37,1.75-3.14-.46-4.41-1.37c-1.28-.91-2.26-2.28-2.95-4.1l2.72-.77c.99,2.24,2.5,3.36,4.55,3.36,.99,0,1.81-.3,2.47-.89s.98-1.34,.98-2.24c0-.54-.17-1.08-.52-1.63-.34-.55-.77-.99-1.28-1.35s-1.32-.76-2.44-1.22c-1.12-.46-1.97-.88-2.57-1.26-.6-.38-1.12-.83-1.56-1.36-.44-.53-.76-1.05-.96-1.57s-.31-1.08-.31-1.67c0-1.43,.57-2.64,1.72-3.65,1.15-1,2.54-1.51,4.17-1.51,1.08,0,2.18,.23,3.3,.7,1.11,.47,2.04,1.18,2.78,2.14Z"/><path class="c" d="M105.59,25.43h4c2.26,0,4.08,.53,5.47,1.59,1.38,1.06,2.08,2.44,2.08,4.14s-.73,3.14-2.2,4.3c-1.46,1.16-3.69,1.72-6.66,1.69v8.19h-2.69V25.43Zm2.69,2.38v6.97c2.04-.02,3.55-.31,4.54-.87,.98-.56,1.48-1.45,1.48-2.68,0-.93-.37-1.73-1.12-2.41-.75-.68-2.38-1.02-4.9-1.02Z"/><path class="c" d="M121.05,25.43h2.72v7.66h9.52v-7.66h2.69v19.91h-2.69v-9.56h-9.52v9.56h-2.72V25.43Z"/><path class="c" d="M139.86,25.05h3.53v3.61c0,.71-.19,1.45-.56,2.23s-.88,1.46-1.52,2.05l-1.25-1.17c1.02-1.02,1.54-2.09,1.56-3.2h-1.77v-3.52Z"/><path class="c" d="M154.73,24.66l9.4,20.67h-2.85l-2.31-5.09h-8.45l-2.28,5.09h-2.83l9.32-20.67Zm0,6.21l-3.18,7.1h6.4l-3.22-7.1Z"/><path class="c" d="M166.58,25.43h2.69v19.91h-2.69V25.43Z"/><path class="c" d="M174.06,25.43h4.31c2.15,0,3.89,.53,5.24,1.6,1.35,1.07,2.02,2.43,2.02,4.1,0,1.33-.44,2.51-1.31,3.53-.87,1.02-2.23,1.74-4.08,2.16l5.78,8.52h-3.12l-5.52-8.19h-.61v8.19h-2.72V25.43Zm2.72,2.41v6.94c4.01,.08,6.02-1.08,6.02-3.48,0-.84-.23-1.53-.7-2.07-.47-.54-1.09-.9-1.88-1.09-.78-.19-1.93-.29-3.44-.29Z"/></g></svg>